<svg id="Layer_1" data-name="Layer 1" xmlns="http://www.w3.org/2000/svg" xmlns:xlink="http://www.w3.org/1999/xlink" viewBox="0 0 87.6 54"><defs><style>.cls-1,.cls-5,.cls-6,.cls-7,.cls-8{fill:none;}.cls-2{fill:#e5d9ba;}.cls-3{clip-path:url(#clip-path);}.cls-4{fill:#221f1f;}.cls-5,.cls-6,.cls-7,.cls-8{stroke:#221f1f;stroke-miterlimit:10;}.cls-5{stroke-linecap:square;}.cls-5,.cls-8{stroke-width:0.75px;}.cls-6{stroke-width:0.25px;}.cls-7{stroke-width:0.5px;}.cls-8{stroke-linecap:round;}</style><clipPath id="clip-path"><ellipse class="cls-1" cx="43.75" cy="27.16" rx="8.33" ry="8.52" transform="translate(-2.16 3.83) rotate(-4.89)"/></clipPath></defs><title>icon-eye</title><polygon class="cls-2" points="43.8 0 0 27.14 43.8 54 87.6 26.86 43.8 0"/><g class="cls-3"><path class="cls-4" d="M44.35,34.3,44,31.53a11.74,11.74,0,0,1-.13-2.78s0,0,0,0h0a12.42,12.42,0,0,1,.34,2.77l.13,2.79a0,0,0,0,1,0,0A0,0,0,0,1,44.35,34.3Z"/><path class="cls-4" d="M43.16,20l.35,2.86a13.1,13.1,0,0,1,.14,2.87,0,0,0,0,1,0,0s0,0,0,0a12.49,12.49,0,0,1-.35-2.85L43.13,20h0Z"/><path class="cls-4" d="M47.15,36.51l-1.51-3.84a25.8,25.8,0,0,1-1.32-3.92s0,0,0,0h0a26.84,26.84,0,0,1,1.51,3.84l1.32,3.92s0,0,0,0S47.15,36.52,47.15,36.51Z"/><path class="cls-4" d="M40.36,17.81l1.57,4a28.92,28.92,0,0,1,1.37,4.06s0,0,0,0h0a28.49,28.49,0,0,1-1.57-4l-1.37-4.07a0,0,0,0,1,0,0Z"/><path class="cls-4" d="M48.8,34.22l-2.16-2.83a19.15,19.15,0,0,1-2-3s0,0,0,0,0,0,0,0a19.08,19.08,0,0,1,2.16,2.83l2,3a0,0,0,0,1,0,0Z"/><path class="cls-4" d="M38.71,20.1,40.93,23a20.24,20.24,0,0,1,2,3,0,0,0,0,1,0,0h0a20.25,20.25,0,0,1-2.22-2.92l-2.05-3a0,0,0,0,1,0,0Z"/><path class="cls-4" d="M49.2,31.46,47,29.85a11.45,11.45,0,0,1-2.09-1.78s0,0,0,0h0a12.09,12.09,0,0,1,2.22,1.61l2.09,1.78v0Z"/><path class="cls-4" d="M38.31,22.87l2.23,1.62a11.92,11.92,0,0,1,2.11,1.78s0,0,0,0a0,0,0,0,1,0,0,12,12,0,0,1-2.23-1.62l-2.11-1.79v0S38.3,22.86,38.31,22.87Z"/><path class="cls-4" d="M50.41,30.08l-2.68-1a12.87,12.87,0,0,1-2.59-1.25s0,0,0,0h0a12.86,12.86,0,0,1,2.68,1l2.59,1.25s0,0,0,0S50.41,30.09,50.41,30.08Z"/><path class="cls-4" d="M37.1,24.24l2.71,1.07a13.25,13.25,0,0,1,2.63,1.26,0,0,0,0,1,0,0h0a13.18,13.18,0,0,1-2.71-1.07l-2.63-1.26s0,0,0,0Z"/><path class="cls-4" d="M54.14,29l-4.49-.69a32.62,32.62,0,0,1-4.46-.9s0,0,0,0h0a32.24,32.24,0,0,1,4.49.69l4.46.9s0,0,0,0Z"/><path class="cls-4" d="M33.37,25.31l4.47.68a32,32,0,0,1,4.44.9h0a0,0,0,0,1,0,0,32.19,32.19,0,0,1-4.47-.69l-4.44-.89s0,0,0,0S33.36,25.31,33.37,25.31Z"/><path class="cls-4" d="M52.91,26.39l-3.73.43a22.53,22.53,0,0,1-3.76.22s0,0,0,0h0a21.32,21.32,0,0,1,3.73-.43l3.76-.22a0,0,0,0,1,0,0S52.92,26.39,52.91,26.39Z"/><path class="cls-4" d="M34.6,27.93l3.82-.43a22.26,22.26,0,0,1,3.83-.22h0s0,0,0,0a23.52,23.52,0,0,1-3.82.43L34.6,28h0Z"/><path class="cls-4" d="M51.1,24.63l-2.88,1.11a15,15,0,0,1-2.95.91h0s0,0,0,0a15.72,15.72,0,0,1,2.88-1.11l3-.91h0S51.1,24.62,51.1,24.63Z"/><path class="cls-4" d="M36.41,29.7l2.94-1.13a15.6,15.6,0,0,1,3-.94,0,0,0,0,1,0,0,0,0,0,0,1,0,0,15.15,15.15,0,0,1-2.93,1.13l-3,.94h0Z"/><path class="cls-4" d="M51.81,21.64l-3.32,2.41a26.68,26.68,0,0,1-3.44,2.24,0,0,0,0,1,0,0s0,0,0,0a26.07,26.07,0,0,1,3.32-2.42l3.45-2.24h0Z"/><path class="cls-4" d="M35.7,32.69,39,30.27A27.16,27.16,0,0,1,42.47,28h0a26.17,26.17,0,0,1-3.33,2.42l-3.45,2.24h0S35.69,32.69,35.7,32.69Z"/><path class="cls-4" d="M49,21.26l-2,2.45A15.35,15.35,0,0,1,44.78,26h0v0a15.4,15.4,0,0,1,2-2.45L49,21.24h0A0,0,0,0,1,49,21.26Z"/><path class="cls-4" d="M38.52,33.07l2-2.44a16.28,16.28,0,0,1,2.17-2.3h0s0,0,0,0a14.74,14.74,0,0,1-2,2.44l-2.16,2.3h0Z"/><path class="cls-4" d="M47.29,20l-1.33,3a15.93,15.93,0,0,1-1.52,2.85s0,0,0,0v0a15.66,15.66,0,0,1,1.33-3L47.27,20s0,0,0,0A0,0,0,0,1,47.29,20Z"/><path class="cls-4" d="M40.22,34.33l1.32-2.92a15.47,15.47,0,0,1,1.51-2.84s0,0,0,0,0,0,0,0a15.45,15.45,0,0,1-1.32,2.93l-1.51,2.84h0A0,0,0,0,1,40.22,34.33Z"/><path class="cls-4" d="M45,21l-.37,2.4a9.59,9.59,0,0,1-.58,2.36h0a0,0,0,0,1,0,0,9.32,9.32,0,0,1,.37-2.41L45,21h0A0,0,0,0,1,45,21Z"/><path class="cls-4" d="M42.5,33.37l.36-2.32a8.21,8.21,0,0,1,.56-2.27s0,0,0,0h0a8.64,8.64,0,0,1-.36,2.32l-.56,2.27s0,0,0,0Z"/></g><path class="cls-5" d="M63.32,27.42l.85.7s-.57.54-.75.75l-.1.1C60.81,31.16,53,37.29,43.75,37.29s-17.1-6.17-19.58-8.35c-.23-.2-.74-.77-.74-.77s.48-.47.65-.66a.38.38,0,0,1,.09-.09c2.48-2.2,10.31-8.36,19.58-8.36S60.81,25.2,63.32,27.42Z"/><path class="cls-6" d="M43.75,19.06A9.63,9.63,0,0,1,47,19.3a8.53,8.53,0,0,1,5.1,7.86,8.33,8.33,0,1,1-16.66,0,8.52,8.52,0,0,1,5.29-7.93A9,9,0,0,1,43.75,19.06Z"/><path class="cls-7" d="M53.1,27.11a9.31,9.31,0,0,0-3.46-7.25,22,22,0,0,0-11.77,0A9.34,9.34,0,1,0,53.1,27.11Z"/><path class="cls-4" d="M60.71,23.41A5.15,5.15,0,0,1,61,22.6l.54-.54L62.62,21l1.09-1.09.54-.54c.27-.09.52-.21.81-.28-.07.29-.19.54-.28.81l-.54.54L63.15,21.5l-1.09,1.09-.54.54A5.15,5.15,0,0,1,60.71,23.41Z"/><path class="cls-4" d="M53.78,19.65a7.82,7.82,0,0,1-.05-1l.3-.84.6-1.67.61-1.68.3-.84c.22-.24.41-.48.65-.71,0,.33,0,.64.05,1l-.3.84-.6,1.68-.6,1.68-.3.83A5.5,5.5,0,0,1,53.78,19.65Z"/><path class="cls-4" d="M43.75,17.7a8.54,8.54,0,0,1-.37-.9V11.37c.13-.3.22-.6.37-.9.16.3.25.6.38.9V16.8A6.91,6.91,0,0,1,43.75,17.7Z"/><path class="cls-4" d="M27,23.41a5.15,5.15,0,0,1-.81-.28l-.54-.54L24.55,21.5l-1.09-1.09-.54-.54c-.09-.27-.21-.52-.28-.81.29.07.54.19.81.28l.54.54L25.08,21l1.09,1.09.54.54A5.15,5.15,0,0,1,27,23.41Z"/><path class="cls-4" d="M33.91,19.65a6.22,6.22,0,0,1-.65-.71l-.3-.83-.6-1.68-.6-1.68-.3-.84c0-.32,0-.63.05-1,.24.23.43.47.65.71l.3.84.6,1.68.6,1.67.31.84A7.85,7.85,0,0,1,33.91,19.65Z"/><circle class="cls-4" cx="43.75" cy="27.16" r="2.25"/><path class="cls-4" d="M60.39,32.5a5.7,5.7,0,0,1,.75.09l.52.4,1.05.79,1.06.78.52.4a7.17,7.17,0,0,1,.3.69c-.26,0-.5-.06-.75-.09l-.52-.4-1-.78-1.06-.79-.52-.39A4.47,4.47,0,0,1,60.39,32.5Z"/><path class="cls-4" d="M53.77,36.28a4.72,4.72,0,0,1,.65.47l.3.63.6,1.26.6,1.26.31.63c0,.27,0,.52,0,.79-.24-.14-.43-.31-.64-.46l-.3-.63L54.64,39,54,37.7l-.3-.62A4.35,4.35,0,0,1,53.77,36.28Z"/><path class="cls-4" d="M43.71,38.36a4.09,4.09,0,0,1,.38.67v.67l0,1.33v2a7.44,7.44,0,0,1-.37.67c-.15-.22-.25-.44-.38-.66V41l0-1.34V39A3.72,3.72,0,0,1,43.71,38.36Z"/><path class="cls-4" d="M26.78,32.9a5.49,5.49,0,0,1-.23.65l-.47.34-.92.69-.92.69-.46.34c-.23,0-.44,0-.68,0a6.21,6.21,0,0,1,.23-.65l.46-.34.92-.69.92-.69.46-.35A3.83,3.83,0,0,1,26.78,32.9Z"/><path class="cls-4" d="M33.74,36.66a3.82,3.82,0,0,1,.06.74l-.28.59L33,39.15l-.56,1.17-.27.58a6.74,6.74,0,0,1-.62.42,6.32,6.32,0,0,1-.06-.74l.28-.58.56-1.17.56-1.17.27-.58A4.8,4.8,0,0,1,33.74,36.66Z"/><polygon class="cls-8" points="43.8 3.72 6.04 26.88 43.8 50.28 81.43 26.88 43.8 3.72"/></svg>