<svg xmlns="http://www.w3.org/2000/svg" viewBox="0 0 49.63 37.19"><defs><style>.cls-1{fill: #000F3D}</style></defs><g id="Layer_2" data-name="Layer 2"><g id="Layer_3" data-name="Layer 3"><g id="Layer_2-2" data-name="Layer 2-2"><path class="cls-1" d="M24.71,30.59C14,30.59,5,23.32,2.42,21.09a1.71,1.71,0,0,1-.16-2.41l.16-.16C5,16.29,14,9,24.71,9S44.46,16.3,47,18.52A1.74,1.74,0,0,1,47.14,21a1.21,1.21,0,0,1-.16.16C43.73,24,35,30.59,24.71,30.59Zm0-20.4c-10.29,0-19.08,7-21.52,9.2a.57.57,0,0,0,0,.83c2.46,2.16,11.26,9.21,21.53,9.21,9.94,0,18.35-6.41,21.51-9.17a.6.6,0,0,0,0-.87h0C43.77,17.23,35,10.19,24.71,10.19Z"/><path class="cls-1" d="M24.71,28a9.29,9.29,0,1,1,9.08-9.29A9.2,9.2,0,0,1,24.71,28Zm0-18.13a8.85,8.85,0,1,0,8.64,8.84A8.76,8.76,0,0,0,24.71,9.83Z"/><path class="cls-1" d="M24.73,29.65a11.41,11.41,0,0,1-1.16-.06,11,11,0,0,1-5.81-19.54L18,9.94A26.5,26.5,0,0,1,24.71,9a26.44,26.44,0,0,1,6.74.91l.21.11a11,11,0,0,1-6.93,19.6ZM18.4,11A9.87,9.87,0,0,0,17,24.84a9.91,9.91,0,0,0,6.65,3.6,9.88,9.88,0,0,0,10.89-9.82h0A9.77,9.77,0,0,0,31,11,24.12,24.12,0,0,0,18.4,11Z"/><rect class="cls-1" x="41.02" y="11.75" width="9.61" height="1.16" transform="translate(4.7 36.01) rotate(-45)"/><rect class="cls-1" x="32.19" y="6.72" width="9.61" height="1.16" transform="translate(17.62 39.65) rotate(-70.24)"/><rect class="cls-1" x="24.13" width="1.16" height="9.61"/><rect class="cls-1" x="3.23" y="7.52" width="1.16" height="9.61" transform="translate(-7.6 6.3) rotate(-45)"/><rect class="cls-1" x="12.05" y="2.49" width="1.16" height="9.61" transform="translate(-1.72 4.69) rotate(-19.73)"/><circle class="cls-1" cx="24.71" cy="18.67" r="2.33"/><path class="cls-1" d="M24.71,21.38a2.71,2.71,0,1,1,2.71-2.71A2.7,2.7,0,0,1,24.71,21.38Zm0-4.66a2,2,0,1,0,1.95,2A2,2,0,0,0,24.71,16.72Z"/><rect class="cls-1" x="44.64" y="22.58" width="1.16" height="6.99" transform="translate(-2.76 46.63) rotate(-53.15)"/><rect class="cls-1" x="36.42" y="27.37" width="1.16" height="7.52" transform="translate(-9.82 19.05) rotate(-25.61)"/><rect class="cls-1" x="24.13" y="29.99" width="1.16" height="7.2"/><rect class="cls-1" x="0.9" y="25.5" width="7" height="1.16" transform="matrix(0.8, -0.6, 0.6, 0.8, -14.74, 7.83)"/><rect class="cls-1" x="8.88" y="30.55" width="7.51" height="1.16" transform="translate(-20.9 29.09) rotate(-64.43)"/></g></g></g></svg>