<svg xmlns="http://www.w3.org/2000/svg" viewBox="0 0 34.84 40.33"><defs><style>.cls-1{fill:#231f20;}.cls-2{fill:#ede9c3;}</style></defs><g id="Layer_2" data-name="Layer 2"><g id="Layer_3" data-name="Layer 3"><path class="cls-1" d="M5.9,23.37c-.12.91-.16,1.12-.16,1.12s0-.18-.16-1.13a8.09,8.09,0,0,0-3-5l-.35-.22L2.57,18a7.12,7.12,0,0,0,3-4.48c.07-.35.15-.69.15-.69s.11.36.18.69a7.16,7.16,0,0,0,3,4.48l.37.19-.36.22A8.25,8.25,0,0,0,5.9,23.37ZM3.27,18.2a6.55,6.55,0,0,1,2.47,3.44A6.55,6.55,0,0,1,8.21,18.2a6.54,6.54,0,0,1-2.47-3.52A6.48,6.48,0,0,1,3.27,18.2Z"/><path class="cls-2" d="M5.78,26.13,5.4,24.57s-.05-.24-.17-1.17a7.77,7.77,0,0,0-2.88-4.73l-.85-.53.9-.48a6.69,6.69,0,0,0,2.84-4.25l.16-.69.31-1.26.37,1.24s.11.38.18.71a7,7,0,0,0,2.82,4.25l.91.48-.87.54a7.88,7.88,0,0,0-2.87,4.74h0c-.12.92-.16,1.13-.16,1.13ZM3.85,18.21a6.86,6.86,0,0,1,1.89,2.43,6.89,6.89,0,0,1,1.9-2.43,6.81,6.81,0,0,1-1.9-2.53A6.79,6.79,0,0,1,3.85,18.21Zm3.27,1.52a4.84,4.84,0,0,0-.33.46C6.9,20,7,19.87,7.12,19.73Z"/><path class="cls-2" d="M14.68,40.33A20.62,20.62,0,0,1,11,40a20.17,20.17,0,0,1-9.1-4.26L0,34.21l2.33.56.81.17a16.53,16.53,0,0,0,12.47-2.62,16.55,16.55,0,0,0,7-10.67A16.67,16.67,0,0,0,9.28,2.22l-.82-.14L6.09,1.76,8.36,1a20.18,20.18,0,0,1,10-.66h0a20.16,20.16,0,0,1-3.71,40ZM4.43,36.24A19.06,19.06,0,1,0,18.18,1.43h0a19.11,19.11,0,0,0-7.23,0A17.77,17.77,0,0,1,23.66,21.85a17.64,17.64,0,0,1-7.42,11.38A17.63,17.63,0,0,1,4.43,36.24Z"/></g></g></svg>