<?xml version="1.0" encoding="utf-8"?>
<!-- Generator: Adobe Illustrator 24.0.1, SVG Export Plug-In . SVG Version: 6.00 Build 0)  -->
<svg version="1.0" id="Layer_1" xmlns="http://www.w3.org/2000/svg" xmlns:xlink="http://www.w3.org/1999/xlink" x="0px" y="0px"
	 viewBox="0 0 70.3 68.1" style="enable-background:new 0 0 70.3 68.1;" xml:space="preserve">
<style type="text/css">
	.st0{fill:#EADDBC;stroke:#EADDBC;stroke-width:0.5;stroke-miterlimit:10;}
	.st1{fill:#EADDBC;}
	.st2{clip-path:url(#SVGID_2_);}
</style>
<g>
	<g>
		<path class="st0" d="M36.2,1.3C54.3,1.3,69,16,69,34S54.3,66.8,36.2,66.8c-7.8,0-15.1-2.7-20.9-7.6c3.8,1.9,8.1,2.9,12.5,2.9
			c15.5,0,28.1-12.6,28.1-28.1S43.3,5.9,27.7,5.9c-4.4,0-8.6,1-12.5,2.9C21.1,4,28.4,1.3,36.2,1.3 M36.2,0.2
			C24.4,0.2,14,6.3,7.9,15.5c4.9-5.3,12-8.6,19.8-8.6c15,0,27.1,12.1,27.1,27.1c0,15-12.1,27.1-27.1,27.1c-7.8,0-14.8-3.3-19.8-8.6
			c6,9.2,16.4,15.3,28.3,15.3C54.9,67.8,70,52.7,70,34C70,15.4,54.9,0.2,36.2,0.2L36.2,0.2z"/>
		<path class="st1" d="M5.4,41c-0.2,1.3-0.2,1.6-0.2,1.6S5.1,42.4,5,41c-0.6-4.5-4.4-7.3-4.4-7.3L0,33.3l0.5-0.3
			c2.1-1.1,3.9-4.1,4.4-6.6c0.1-0.5,0.2-1,0.2-1s0.2,0.5,0.3,1c0.6,2.5,2.3,5.5,4.4,6.6l0.5,0.3l-0.5,0.3C9.8,33.7,6,36.5,5.4,41z
			 M1.6,33.4c1,0.7,2.8,2.3,3.6,5.1c0.8-2.8,2.7-4.3,3.6-5.1c-1.7-1.1-3-3-3.6-5.2C4.5,30.4,3.3,32.3,1.6,33.4z"/>
		<g>
			<defs>
				<path id="SVGID_1_" d="M36.2,0.2C24.4,0.2,14,6.3,7.9,15.5c4.9-5.3,12-8.6,19.8-8.6c15,0,27.1,12.1,27.1,27.1
					c0,15-12.1,27.1-27.1,27.1c-7.8,0-14.8-3.3-19.8-8.6c6,9.2,16.4,15.3,28.3,15.3C54.9,67.8,70,52.7,70,34
					C70,15.4,54.9,0.2,36.2,0.2L36.2,0.2z"/>
			</defs>
			<clipPath id="SVGID_2_">
				<use xlink:href="#SVGID_1_"  style="overflow:visible;"/>
			</clipPath>
			<g class="st2">
				<g>
					<g>
						<g>
							<path class="st1" d="M38.4,5.7C34.7,5.7,24,5.4,24,5.4s10.6-0.3,14.3-0.3c1.4,0,4,0.1,4,0.3C42.4,5.6,39.8,5.7,38.4,5.7z"/>
						</g>
					</g>
				</g>
				<g>
					<g>
						<g>
							<path class="st1" d="M44.5,7.8c-3.5,0-13.8-0.3-13.8-0.3s10.2-0.3,13.8-0.3c1.4,0,3.9,0.1,3.9,0.3
								C48.3,7.8,45.9,7.8,44.5,7.8z"/>
						</g>
					</g>
				</g>
				<g>
					<g>
						<g>
							<path class="st1" d="M39.6,9c-3.1,0-12-0.2-12-0.2s8.9-0.3,12-0.2c1.2,0,3.4,0,3.4,0.2C42.9,9,40.8,9,39.6,9z"/>
						</g>
					</g>
				</g>
				<g>
					<g>
						<g>
							<path class="st1" d="M36.9,10.5c3.8,0,14.8,0.3,14.8,0.3s-11,0.3-14.8,0.3c-1.5,0-4.2-0.1-4.2-0.3
								C32.7,10.6,35.4,10.5,36.9,10.5z"/>
						</g>
					</g>
				</g>
				<g>
					<g>
						<g>
							<path class="st1" d="M47.4,13c-2.9,0-11.2-0.2-11.2-0.2s8.3-0.3,11.2-0.2c1.1,0,3.1,0,3.1,0.2C50.5,13,48.5,13,47.4,13z"/>
						</g>
					</g>
				</g>
				<g>
					<g>
						<g>
							<path class="st1" d="M25.7,13.5c4.2,0,16.3,0.3,16.3,0.3s-12.1,0.4-16.3,0.3c-1.6,0-4.6-0.1-4.6-0.3
								C21.2,13.5,24.1,13.5,25.7,13.5z"/>
						</g>
					</g>
				</g>
				<g>
					<g>
						<g>
							<path class="st1" d="M41.3,15.5c-3.7,0-14.3-0.3-14.3-0.3s10.6-0.3,14.3-0.3c1.4,0,4,0.1,4,0.3
								C45.4,15.5,42.8,15.5,41.3,15.5z"/>
						</g>
					</g>
				</g>
				<g>
					<g>
						<g>
							<path class="st1" d="M33.4,17.1c3.5,0,13.8,0.3,13.8,0.3S37,17.7,33.4,17.7c-1.4,0-3.9-0.1-3.9-0.3
								C29.6,17.2,32,17.1,33.4,17.1z"/>
						</g>
					</g>
				</g>
				<g>
					<g>
						<g>
							<path class="st1" d="M37.5,18.9c-3.1,0-12-0.2-12-0.2s8.9-0.3,12-0.2c1.2,0,3.4,0,3.4,0.2C40.9,18.9,38.7,18.9,37.5,18.9z"/>
						</g>
					</g>
				</g>
				<g>
					<g>
						<g>
							<path class="st1" d="M47.6,21c-3.8,0-14.8-0.3-14.8-0.3s11-0.3,14.8-0.3c1.5,0,4.2,0.1,4.2,0.3C51.7,20.9,49,20.9,47.6,21z"
								/>
						</g>
					</g>
				</g>
				<g>
					<g>
						<g>
							<path class="st1" d="M31.4,3.6c2.1,0,8.1,0.2,8.1,0.2s-6,0.2-8.1,0.2c-0.8,0-2.3,0-2.3-0.2C29.1,3.6,30.6,3.6,31.4,3.6z"/>
						</g>
					</g>
				</g>
				<g>
					<g>
						<g>
							<path class="st1" d="M37.5,24c-4.2,0-16.3-0.3-16.3-0.3s12.1-0.4,16.3-0.3c1.6,0,4.6,0.1,4.6,0.3C42,23.9,39.1,23.9,37.5,24z
								"/>
						</g>
					</g>
				</g>
			</g>
			<g class="st2">
				<g>
					<g>
						<g>
							<path class="st1" d="M65.2,56.4c-3.7,0-14.3-0.3-14.3-0.3s10.6-0.3,14.3-0.3c1.4,0,4,0.1,4,0.3
								C69.2,56.4,66.6,56.4,65.2,56.4z"/>
						</g>
					</g>
				</g>
				<g>
					<g>
						<g>
							<path class="st1" d="M62.4,58.6c-3.5,0-13.8-0.3-13.8-0.3S58.9,58,62.4,58c1.4,0,3.9,0.1,3.9,0.3
								C66.3,58.5,63.8,58.5,62.4,58.6z"/>
						</g>
					</g>
				</g>
				<g>
					<g>
						<g>
							<path class="st1" d="M56.6,59.8c-3.1,0-12-0.2-12-0.2s8.9-0.3,12-0.2c1.2,0,3.4,0,3.4,0.2C60,59.7,57.8,59.8,56.6,59.8z"/>
						</g>
					</g>
				</g>
				<g>
					<g>
						<g>
							<path class="st1" d="M53.8,61.3c3.8,0,14.8,0.3,14.8,0.3s-11,0.3-14.8,0.3c-1.5,0-4.2-0.1-4.2-0.3
								C49.6,61.3,52.3,61.3,53.8,61.3z"/>
						</g>
					</g>
				</g>
				<g>
					<g>
						<g>
							<path class="st1" d="M58,63.8c-2.9,0-11.2-0.2-11.2-0.2s8.3-0.3,11.2-0.2c1.1,0,3.1,0,3.1,0.2C61.1,63.7,59.1,63.7,58,63.8z"
								/>
						</g>
					</g>
				</g>
				<g>
					<g>
						<g>
							<path class="st1" d="M44.8,64.2c4.2,0,16.3,0.3,16.3,0.3S49,64.9,44.8,64.9c-1.6,0-4.6-0.1-4.6-0.3
								C40.3,64.3,43.2,64.2,44.8,64.2z"/>
						</g>
					</g>
				</g>
				<g>
					<g>
						<g>
							<path class="st1" d="M60.4,66.3c-3.7,0-14.3-0.3-14.3-0.3s10.6-0.3,14.3-0.3c1.4,0,4,0.1,4,0.3
								C64.4,66.2,61.9,66.2,60.4,66.3z"/>
						</g>
					</g>
				</g>
				<g>
					<g>
						<g>
							<path class="st1" d="M52.5,67.9c3.5,0,13.8,0.3,13.8,0.3s-10.2,0.3-13.8,0.3c-1.4,0-3.9-0.1-3.9-0.3
								C48.7,67.9,51.1,67.9,52.5,67.9z"/>
						</g>
					</g>
				</g>
				<g>
					<g>
						<g>
							<path class="st1" d="M56.6,69.6c-3.1,0-12-0.2-12-0.2s8.9-0.3,12-0.2c1.2,0,3.4,0,3.4,0.2C60,69.6,57.8,69.6,56.6,69.6z"/>
						</g>
					</g>
				</g>
				<g>
					<g>
						<g>
							<path class="st1" d="M66.6,71.7c-3.8,0-14.8-0.3-14.8-0.3s11-0.3,14.8-0.3c1.5,0,4.2,0.1,4.2,0.3
								C70.8,71.6,68.1,71.7,66.6,71.7z"/>
						</g>
					</g>
				</g>
				<g>
					<g>
						<g>
							<path class="st1" d="M52.3,72.8c2.9,0,11.2,0.2,11.2,0.2s-8.3,0.3-11.2,0.2c-1.1,0-3.1,0-3.1-0.2
								C49.1,72.8,51.1,72.8,52.3,72.8z"/>
						</g>
					</g>
				</g>
				<g>
					<g>
						<g>
							<path class="st1" d="M56.6,74.7c-4.2,0-16.3-0.3-16.3-0.3s12.1-0.4,16.3-0.3c1.6,0,4.6,0.1,4.6,0.3
								C61.1,74.7,58.2,74.7,56.6,74.7z"/>
						</g>
					</g>
				</g>
			</g>
		</g>
	</g>
</g>
</svg>
