<svg xmlns="http://www.w3.org/2000/svg" viewBox="0 0 45.87 46.6"><defs><style>.cls-1{fill:#ede9c3;}</style></defs><g id="Layer_2" data-name="Layer 2"><g id="Layer_3" data-name="Layer 3"><path class="cls-1" d="M23,38a14.81,14.81,0,1,1,14.8-14.81A14.82,14.82,0,0,1,23,38ZM23,9.46A13.77,13.77,0,1,0,36.72,23.23,13.78,13.78,0,0,0,23,9.46Z"/><path class="cls-1" d="M21.69,9.3c-.81-1.61-.15-2.33,1-3.33.95-.79.52-2.46.52-2.47l-1-3.5,1.91,3.08c.25.4,1.46,2.44,1,3.62a1.63,1.63,0,0,0,0,1.46c.06.22.14.48.21.8l-1,.25c-.07-.3-.14-.54-.2-.75a2.63,2.63,0,0,1,0-2.16,1.23,1.23,0,0,0,0-.66,2.72,2.72,0,0,1-.79,1.13c-1.19,1-1.21,1.21-.78,2.06Z"/><path class="cls-1" d="M15.66,11.31c-1.47-1-1.22-2-.63-3.43.47-1.15-.69-2.42-.7-2.43L11.84,2.81,15,4.64c.41.24,2.43,1.48,2.54,2.75a1.7,1.7,0,0,0,.69,1.29c.16.17.35.36.57.61L18,10c-.2-.23-.38-.42-.53-.57a2.65,2.65,0,0,1-1-1.92,1.29,1.29,0,0,0-.32-.59A2.55,2.55,0,0,1,16,8.27c-.59,1.45-.51,1.64.27,2.19Z"/><path class="cls-1" d="M11,15.78c-1.76-.39-1.9-1.36-1.92-2.91,0-1.25-1.59-2-1.6-2L4.23,9.46l3.52.45c.47.06,2.81.41,3.42,1.54.3.56.48.64,1.14.91l.75.34-.44.94c-.28-.14-.51-.23-.71-.32a2.61,2.61,0,0,1-1.66-1.38,1.14,1.14,0,0,0-.52-.41,2.56,2.56,0,0,1,.38,1.32c0,1.56.18,1.71,1.11,1.91Z"/><path class="cls-1" d="M8,21.83c-1.09,0-1.57-.74-2.16-1.86s-2.29-1-2.31-1L0,19.13l3.35-1.19c.44-.16,2.68-.91,3.74-.18a1.67,1.67,0,0,0,1.43.3l.82,0,0,1c-.31,0-.56,0-.78,0a2.68,2.68,0,0,1-2.09-.48,1.1,1.1,0,0,0-.66-.14,2.71,2.71,0,0,1,.94,1c.73,1.38.93,1.44,1.85,1.2l.27,1A3.46,3.46,0,0,1,8,21.83Z"/><path class="cls-1" d="M.37,29l2.53-2.5c.33-.33,2.06-2,3.31-1.74a1.71,1.71,0,0,0,1.43-.33c.2-.12.43-.25.72-.39l.47.93c-.28.13-.5.26-.69.36a2.62,2.62,0,0,1-2.1.45,1.19,1.19,0,0,0-.65.16,2.68,2.68,0,0,1,1.28.51c1.24.95,1.45.92,2.18.31l.66.8c-1.38,1.15-2.23.66-3.47-.28-1-.76-2.52,0-2.53.05Z"/><path class="cls-1" d="M5.24,38.3,6.47,35c.17-.44,1-2.65,2.27-3,.62-.17.73-.33,1.15-.91.14-.18.29-.4.5-.66l.81.65c-.19.24-.34.45-.47.62A2.65,2.65,0,0,1,9,33a1.1,1.1,0,0,0-.51.42,2.51,2.51,0,0,1,1.37-.08c1.53.34,1.7.22,2.11-.64l.94.44c-.77,1.63-1.75,1.55-3.27,1.22-1.23-.27-2.26,1.1-2.27,1.11Z"/><path class="cls-1" d="M13.55,44.54,13.27,41c0-.47-.18-2.84.79-3.66A1.68,1.68,0,0,0,14.72,36c0-.22.1-.49.17-.8l1,.24c-.07.3-.11.54-.16.76a2.64,2.64,0,0,1-1,1.9,1.24,1.24,0,0,0-.29.6,2.58,2.58,0,0,1,1.21-.65c1.53-.35,1.64-.52,1.64-1.48h1c0,1.8-.93,2.14-2.45,2.48-1.22.28-1.59,1.95-1.59,2Z"/><path class="cls-1" d="M23.81,46.6l-1.76-3.09c-.23-.41-1.36-2.49-.83-3.65a1.69,1.69,0,0,0,.05-1.46c-.06-.23-.12-.49-.19-.81l1-.21c.06.31.12.55.18.76a2.67,2.67,0,0,1-.11,2.15,1.21,1.21,0,0,0,0,.67,2.62,2.62,0,0,1,.83-1.1c1.23-1,1.26-1.17.86-2l.94-.44c.76,1.64.06,2.34-1.17,3.29-1,.76-.61,2.44-.61,2.46Z"/><path class="cls-1" d="M33.61,44.07l-3-2.1c-.38-.27-2.28-1.69-2.29-3a1.66,1.66,0,0,0-.57-1.35c-.15-.18-.32-.39-.51-.65l.83-.62c.18.25.34.45.48.62a2.65,2.65,0,0,1,.81,2,1.13,1.13,0,0,0,.27.61A2.69,2.69,0,0,1,30,38.26c.72-1.38.65-1.58-.07-2.2l.67-.79c1.37,1.16,1,2.09.32,3.47-.56,1.1.48,2.47.49,2.48Z"/><path class="cls-1" d="M41.33,37.55l-3.5-.64c-.46-.08-2.78-.56-3.33-1.71-.27-.59-.44-.67-1.08-1l-.74-.37.49-.92c.27.15.5.26.7.35a2.67,2.67,0,0,1,1.57,1.47,1.23,1.23,0,0,0,.5.44,2.63,2.63,0,0,1-.31-1.34c.06-1.56-.08-1.71-1-2l.28-1c1.73.48,1.82,1.46,1.76,3-.05,1.25,1.47,2,1.49,2Z"/><path class="cls-1" d="M40.18,29.5a2.68,2.68,0,0,1-1.66-.44,1.66,1.66,0,0,0-1.39-.43c-.23,0-.5,0-.83,0l.06-1c.31,0,.56,0,.78,0a2.68,2.68,0,0,1,2,.67,1.24,1.24,0,0,0,.64.19A2.68,2.68,0,0,1,39,27.36c-.6-1.44-.79-1.52-1.74-1.36l-.17-1c1.77-.3,2.26.55,2.87,2,.48,1.15,2.19,1.22,2.21,1.23l3.56.12-3.44.9A9.1,9.1,0,0,1,40.18,29.5Z"/><path class="cls-1" d="M37.47,23.71l-.38-1c.28-.11.52-.22.71-.31a2.67,2.67,0,0,1,2.14-.26,1.22,1.22,0,0,0,.66-.1,2.55,2.55,0,0,1-1.23-.63c-1.15-1-1.36-1-2.15-.49l-.59-.86c1.48-1,2.29-.46,3.44.59.92.84,2.51.18,2.53.17l3.27-1.39-2.74,2.27c-.36.3-2.21,1.77-3.45,1.44a1.7,1.7,0,0,0-1.45.21Z"/><path class="cls-1" d="M36.25,17.25l-.76-.71A7.67,7.67,0,0,0,36,16a2.64,2.64,0,0,1,1.83-1.14,1.23,1.23,0,0,0,.55-.37,2.57,2.57,0,0,1-1.37,0c-1.5-.46-1.68-.36-2.16.46l-.9-.52c.91-1.56,1.88-1.39,3.37-.93,1.19.37,2.34-.9,2.36-.91l2.38-2.65-1.53,3.22c-.2.42-1.26,2.54-2.52,2.77a1.68,1.68,0,0,0-1.22.8C36.65,16.81,36.47,17,36.25,17.25Z"/><path class="cls-1" d="M32.12,12l-1-.33c.09-.29.16-.53.22-.74a2.66,2.66,0,0,1,1.17-1.81,1.14,1.14,0,0,0,.35-.57,2.58,2.58,0,0,1-1.27.54c-1.54.21-1.67.38-1.76,1.33l-1-.1C29,8.5,29.93,8.24,31.47,8c1.23-.17,1.75-1.8,1.76-1.82l1-3.47,0,3.62c0,.47-.07,2.84-1.12,3.58-.52.37-.57.55-.77,1.24C32.3,11.4,32.23,11.66,32.12,12Z"/></g></g></svg>