<?xml version="1.0" encoding="utf-8"?>
<!-- Generator: Adobe Illustrator 24.0.1, SVG Export Plug-In . SVG Version: 6.00 Build 0)  -->
<svg version="1.0" id="Layer_1" xmlns="http://www.w3.org/2000/svg" xmlns:xlink="http://www.w3.org/1999/xlink" x="0px" y="0px"
	 viewBox="0 0 80 80" style="enable-background:new 0 0 80 80;" xml:space="preserve">
<style type="text/css">
	.st0{fill:#EADDBC;}
	.st1{clip-path:url(#SVGID_2_);}
</style>
<g>
	<g>
		<path class="st0" d="M70.6,43.2c6.3,1.6,9.4-4.4,9.4-4.4s-4.4,3.5-9.6-0.3c-3-2.2-5.7-3-9.1-2c0-0.2-0.1-0.5-0.1-0.7
			c0.5-0.6,1.6-1.5,3.3-2c4.7-1.3,8.1-0.6,8.1-0.6s-2.6-0.8-5.1-1.1c-3.4-0.4-6,0.9-7,1.5c0-0.2-0.1-0.3-0.2-0.5
			c0.8-1.1,3.4-4.5,7.6-5.7C74.3,25.6,74,19,74,19s-2.1,5.3-8.4,4.6c-3.8-0.4-6.4,0.3-8.8,2.8c-0.2-0.2-0.3-0.4-0.5-0.6
			c0.2-0.8,0.6-2.1,1.9-3.4c3.4-3.5,6.7-4.6,6.7-4.6s-2.6,0.6-4.9,1.6c-3.2,1.4-4.7,3.8-5.3,4.8c-0.1-0.1-0.2-0.2-0.4-0.3
			c0.1-1.3,0.7-5.6,3.7-8.7c4.5-4.7,0.9-10.3,0.9-10.3s0.9,5.6-5,8.2c-3.5,1.5-5.4,3.4-6.2,6.8c-0.2-0.1-0.5-0.2-0.7-0.3
			c-0.3-0.8-0.5-2.1-0.1-3.8c1.2-4.7,3.6-7.3,3.6-7.3s-2,1.8-3.5,3.8c-2,2.7-2.2,5.5-2.2,6.7c-0.2,0-0.3-0.1-0.5-0.1
			c-0.6-1.3-2.1-5.2-1.1-9.4C44.7,3.1,38.8,0,38.8,0s3.5,4.4-0.3,9.6c-2.2,3-3,5.7-2,9c-0.3,0-0.5,0.1-0.8,0.1
			c-0.6-0.6-1.5-1.6-1.9-3.3c-1.3-4.7-0.6-8.1-0.6-8.1s-0.8,2.6-1.1,5.1c-0.4,3.3,0.8,5.9,1.4,6.9c-0.2,0.1-0.3,0.1-0.5,0.2
			c-1.2-0.8-4.4-3.5-5.6-7.6C25.6,5.7,19,5.9,19,5.9s5.3,2.1,4.6,8.4c-0.4,3.7,0.2,6.4,2.8,8.8c-0.2,0.2-0.4,0.3-0.6,0.5
			c-0.8-0.2-2.1-0.7-3.3-1.9c-3.5-3.4-4.6-6.7-4.6-6.7s0.6,2.6,1.6,4.9c1.3,3.1,3.6,4.7,4.7,5.2c-0.1,0.1-0.2,0.3-0.4,0.4
			c-1.4-0.1-5.6-0.8-8.6-3.7C10.4,17.4,4.8,21,4.8,21s5.6-0.9,8.2,5c1.5,3.4,3.4,5.4,6.8,6.2c-0.1,0.3-0.2,0.5-0.3,0.8
			c-0.8,0.2-2.1,0.5-3.8,0c-4.7-1.2-7.3-3.6-7.3-3.6s1.8,2,3.8,3.5c2.7,2,5.4,2.2,6.6,2.2c0,0.2-0.1,0.4-0.1,0.5
			c-1.3,0.6-5.2,2.1-9.3,1.1C3.1,35.2,0,41.2,0,41.2s4.4-3.5,9.6,0.3c3,2.2,5.6,3,9,2c0,0.3,0.1,0.5,0.1,0.8
			c-0.6,0.6-1.6,1.5-3.2,1.9c-4.7,1.3-8.1,0.6-8.1,0.6s2.6,0.8,5.1,1.1c3.3,0.4,5.8-0.8,6.8-1.4c0.1,0.2,0.1,0.3,0.2,0.5
			c-0.8,1.2-3.5,4.4-7.5,5.6C5.7,54.3,5.9,61,5.9,61s2.1-5.3,8.4-4.6c3.7,0.4,6.4-0.2,8.8-2.7c0.2,0.2,0.3,0.4,0.5,0.6
			c-0.2,0.8-0.7,2.1-1.9,3.3c-3.4,3.5-6.7,4.6-6.7,4.6s2.6-0.6,4.9-1.6c3.1-1.3,4.7-3.6,5.2-4.7c0.1,0.1,0.3,0.2,0.4,0.4
			c-0.1,1.4-0.8,5.6-3.7,8.7C17.4,69.6,21,75.2,21,75.2s-0.9-5.6,5-8.2c3.4-1.5,5.4-3.4,6.2-6.8c0.2,0.1,0.5,0.2,0.7,0.3
			c0.3,0.8,0.5,2.1,0.1,3.8c-1.2,4.7-3.6,7.3-3.6,7.3s2-1.8,3.5-3.8c2-2.7,2.2-5.5,2.2-6.7c0.2,0,0.3,0.1,0.5,0.1
			c0.6,1.3,2.1,5.2,1.1,9.4c-1.6,6.3,4.4,9.4,4.4,9.4s-3.5-4.4,0.3-9.6c2.2-3,3-5.7,2-9c0.3,0,0.5-0.1,0.8-0.1
			c0.6,0.6,1.5,1.6,2,3.3c1.3,4.7,0.6,8.1,0.6,8.1s0.8-2.6,1.1-5.1c0.4-3.4-0.9-5.9-1.5-6.9c0.2-0.1,0.3-0.1,0.5-0.2
			c1.1,0.8,4.5,3.4,5.7,7.6C54.3,74.3,61,74,61,74s-5.3-2.1-4.6-8.4c0.4-3.8-0.3-6.4-2.8-8.8c0.2-0.2,0.4-0.3,0.6-0.5
			c0.8,0.2,2.1,0.6,3.4,1.9c3.5,3.4,4.6,6.7,4.6,6.7s-0.6-2.6-1.6-4.9c-1.4-3.2-3.8-4.7-4.8-5.3c0.1-0.1,0.2-0.2,0.3-0.4
			c1.3,0.1,5.6,0.7,8.7,3.7c4.7,4.5,10.3,0.9,10.3,0.9s-5.6,0.9-8.2-5c-1.5-3.5-3.4-5.5-6.9-6.3c0.1-0.2,0.2-0.5,0.3-0.7
			c0.8-0.3,2.2-0.5,3.9-0.1c4.7,1.2,7.3,3.6,7.3,3.6s-1.8-2-3.8-3.5c-2.8-2.1-5.6-2.2-6.8-2.2c0-0.2,0.1-0.3,0.1-0.5
			C62.4,43.7,66.3,42.1,70.6,43.2z M19.6,40c0-11.2,9.1-20.4,20.4-20.4S60.3,28.8,60.3,40c0,11.2-9.1,20.4-20.4,20.4
			S19.6,51.2,19.6,40z"/>
		<g>
			<defs>
				<circle id="SVGID_1_" cx="40" cy="40" r="20.6"/>
			</defs>
			<clipPath id="SVGID_2_">
				<use xlink:href="#SVGID_1_"  style="overflow:visible;"/>
			</clipPath>
			<g class="st1">
				<g>
					<g>
						<g>
							<path class="st0" d="M26.2,47c-2.3,0-9-0.2-9-0.2s6.7-0.2,9-0.2c0.9,0,2.5,0,2.5,0.2C28.8,47,27.1,47,26.2,47z"/>
						</g>
					</g>
				</g>
				<g>
					<g>
						<g>
							<path class="st0" d="M24.2,48.4c-2.2,0-8.6-0.2-8.6-0.2S22,48,24.2,48c0.9,0,2.4,0,2.4,0.2C26.6,48.4,25,48.4,24.2,48.4z"/>
						</g>
					</g>
				</g>
				<g>
					<g>
						<g>
							<path class="st0" d="M27.3,49.1c-1.9,0-7.5-0.1-7.5-0.1s5.6-0.2,7.5-0.1c0.8,0,2.1,0,2.1,0.1C29.4,49.1,28.1,49.1,27.3,49.1z
								"/>
						</g>
					</g>
				</g>
				<g>
					<g>
						<g>
							<path class="st0" d="M26.3,50.1c2.4,0,9.3,0.2,9.3,0.2s-6.9,0.2-9.3,0.2c-0.9,0-2.6,0-2.6-0.2C23.8,50.1,25.4,50.1,26.3,50.1
								z"/>
						</g>
					</g>
				</g>
				<g>
					<g>
						<g>
							<path class="st0" d="M30.4,51.6c-1.8,0-7-0.1-7-0.1s5.2-0.2,7-0.1c0.7,0,2,0,2,0.1C32.4,51.6,31.1,51.6,30.4,51.6z"/>
						</g>
					</g>
				</g>
				<g>
					<g>
						<g>
							<path class="st0" d="M22.2,51.9c2.6,0,10.2,0.2,10.2,0.2s-7.6,0.2-10.2,0.2c-1,0-2.8,0-2.8-0.2
								C19.4,51.9,21.2,51.9,22.2,51.9z"/>
						</g>
					</g>
				</g>
				<g>
					<g>
						<g>
							<path class="st0" d="M32,53.2c-2.3,0-9-0.2-9-0.2s6.7-0.2,9-0.2c0.9,0,2.5,0,2.5,0.2C34.5,53.2,32.9,53.2,32,53.2z"/>
						</g>
					</g>
				</g>
				<g>
					<g>
						<g>
							<path class="st0" d="M27,54.2c2.2,0,8.6,0.2,8.6,0.2s-6.4,0.2-8.6,0.2c-0.9,0-2.4,0-2.4-0.2C24.6,54.2,26.2,54.2,27,54.2z"/>
						</g>
					</g>
				</g>
				<g>
					<g>
						<g>
							<path class="st0" d="M29.6,55.3c-1.9,0-7.5-0.1-7.5-0.1s5.6-0.2,7.5-0.1c0.8,0,2.1,0,2.1,0.1C31.7,55.3,30.4,55.3,29.6,55.3z
								"/>
						</g>
					</g>
				</g>
				<g>
					<g>
						<g>
							<path class="st0" d="M35.9,56.6c-2.4,0-9.3-0.2-9.3-0.2s6.9-0.2,9.3-0.2c0.9,0,2.6,0,2.6,0.2C38.5,56.6,36.8,56.6,35.9,56.6z
								"/>
						</g>
					</g>
				</g>
				<g>
					<g>
						<g>
							<path class="st0" d="M26.9,57.3c1.8,0,7,0.1,7,0.1s-5.2,0.2-7,0.1c-0.7,0-2,0-2-0.1C24.9,57.3,26.2,57.3,26.9,57.3z"/>
						</g>
					</g>
				</g>
				<g>
					<g>
						<g>
							<path class="st0" d="M33.4,58.5c-2.6,0-10.2-0.2-10.2-0.2s7.6-0.2,10.2-0.2c1,0,2.8,0,2.8,0.2C36.2,58.4,34.4,58.5,33.4,58.5
								z"/>
						</g>
					</g>
				</g>
				<g>
					<g>
						<g>
							<path class="st0" d="M17.3,45c1.8,0,7,0.1,7,0.1s-5.2,0.2-7,0.1c-0.7,0-2,0-2-0.1C15.3,45,16.6,45,17.3,45z"/>
						</g>
					</g>
				</g>
				<g>
					<g>
						<g>
							<path class="st0" d="M32.2,59.6c2.3,0,9.1,0.2,9.1,0.2S34.6,60,32.2,60c-0.9,0-2.5,0-2.5-0.2C29.7,59.7,31.3,59.6,32.2,59.6z
								"/>
						</g>
					</g>
				</g>
			</g>
			<g class="st1">
				<g>
					<g>
						<g>
							<path class="st0" d="M52.7,23.7c-2.3,0-9-0.2-9-0.2s6.7-0.2,9-0.2c0.9,0,2.5,0,2.5,0.2C55.2,23.6,53.6,23.7,52.7,23.7z"/>
						</g>
					</g>
				</g>
				<g>
					<g>
						<g>
							<path class="st0" d="M57.5,25c-2.2,0-8.6-0.2-8.6-0.2s6.4-0.2,8.6-0.2c0.9,0,2.4,0,2.4,0.2C59.9,25,58.4,25,57.5,25z"/>
						</g>
					</g>
				</g>
				<g>
					<g>
						<g>
							<path class="st0" d="M53.8,25.8c-1.9,0-7.5-0.1-7.5-0.1s5.6-0.2,7.5-0.1c0.8,0,2.1,0,2.1,0.1C55.9,25.8,54.6,25.8,53.8,25.8z
								"/>
						</g>
					</g>
				</g>
				<g>
					<g>
						<g>
							<path class="st0" d="M52.8,26.7c2.4,0,9.3,0.2,9.3,0.2s-6.9,0.2-9.3,0.2c-0.9,0-2.6,0-2.6-0.2C50.2,26.7,51.9,26.7,52.8,26.7
								z"/>
						</g>
					</g>
				</g>
				<g>
					<g>
						<g>
							<path class="st0" d="M56.9,28.3c-1.8,0-7-0.1-7-0.1s5.2-0.2,7-0.1c0.7,0,2,0,2,0.1C58.9,28.2,57.6,28.3,56.9,28.3z"/>
						</g>
					</g>
				</g>
				<g>
					<g>
						<g>
							<path class="st0" d="M48.7,28.5c2.6,0,10.2,0.2,10.2,0.2S51.3,29,48.7,29c-1,0-2.8,0-2.8-0.2C45.8,28.6,47.7,28.6,48.7,28.5z
								"/>
						</g>
					</g>
				</g>
				<g>
					<g>
						<g>
							<path class="st0" d="M58.5,29.8c-2.3,0-9-0.2-9-0.2s6.7-0.2,9-0.2c0.9,0,2.5,0,2.5,0.2C61,29.8,59.4,29.8,58.5,29.8z"/>
						</g>
					</g>
				</g>
				<g>
					<g>
						<g>
							<path class="st0" d="M53.5,30.8c2.2,0,8.6,0.2,8.6,0.2s-6.4,0.2-8.6,0.2c-0.9,0-2.4,0-2.4-0.2C51.1,30.9,52.6,30.8,53.5,30.8
								z"/>
						</g>
					</g>
				</g>
				<g>
					<g>
						<g>
							<path class="st0" d="M56.1,31.9c-1.9,0-7.5-0.1-7.5-0.1s5.6-0.2,7.5-0.1c0.8,0,2.1,0,2.1,0.1C58.2,31.9,56.8,31.9,56.1,31.9z
								"/>
						</g>
					</g>
				</g>
				<g>
					<g>
						<g>
							<path class="st0" d="M62.4,33.2c-2.4,0-9.3-0.2-9.3-0.2s6.9-0.2,9.3-0.2c0.9,0,2.6,0,2.6,0.2C64.9,33.2,63.3,33.2,62.4,33.2z
								"/>
						</g>
					</g>
				</g>
				<g>
					<g>
						<g>
							<path class="st0" d="M52.4,33.9c1.8,0,7,0.1,7,0.1s-5.2,0.2-7,0.1c-0.7,0-2,0-2-0.1C50.5,33.9,51.7,33.9,52.4,33.9z"/>
						</g>
					</g>
				</g>
				<g>
					<g>
						<g>
							<path class="st0" d="M61.9,35.8c-2.6,0-10.2-0.2-10.2-0.2s7.6-0.2,10.2-0.2c1,0,2.8,0,2.8,0.2C64.7,35.8,62.9,35.8,61.9,35.8
								z"/>
						</g>
					</g>
				</g>
				<g>
					<g>
						<g>
							<path class="st0" d="M45.4,21.6c1.8,0,7,0.1,7,0.1s-5.2,0.2-7,0.1c-0.7,0-2,0-2-0.1C43.4,21.6,44.6,21.6,45.4,21.6z"/>
						</g>
					</g>
				</g>
				<g>
					<g>
						<g>
							<path class="st0" d="M59.1,36.8c2.3,0,9.1,0.2,9.1,0.2s-6.7,0.2-9.1,0.2c-0.9,0-2.5,0-2.5-0.2C56.6,36.9,58.2,36.9,59.1,36.8
								z"/>
						</g>
					</g>
				</g>
			</g>
		</g>
	</g>
</g>
</svg>
